HIERARCHY
ROOT Hips
{
    OFFSET 0.000000 0.000000 0.000000
    CHANNELS 6 Xposition Yposition Zposition Zrotation Xrotation Yrotation
    JOINT Spine
    {
        OFFSET -0.000000 0.083210 0.000000
        CHANNELS 3 Zrotation Xrotation Yrotation
        JOINT Spine1
        {
            OFFSET -0.000000 0.256334 0.000000
            CHANNELS 3 Zrotation Xrotation Yrotation
            JOINT Neck
            {
                OFFSET -0.000000 0.275576 0.002912
                CHANNELS 3 Zrotation Xrotation Yrotation
                JOINT Head
                {
                    OFFSET -0.000000 0.157287 0.020295
                    CHANNELS 3 Zrotation Xrotation Yrotation
                    End Site
                    {
                        OFFSET -0.000000 0.202951 0.000000
                    }
                }
            }
            JOINT LeftShoulder
            {
                OFFSET 0.041044 0.235234 -0.000041
                CHANNELS 3 Zrotation Xrotation Yrotation
                JOINT LeftArm
                {
                    OFFSET 0.117964 0.000000 0.000000
                    CHANNELS 3 Zrotation Xrotation Yrotation
                    JOINT LeftForeArm
                    {
                        OFFSET 0.291248 0.000000 0.000000
                        CHANNELS 3 Zrotation Xrotation Yrotation
                        JOINT LeftHand
                        {
                            OFFSET 0.245673 0.000000 0.000000
                            CHANNELS 3 Zrotation Xrotation Yrotation
                            End Site
                            {
                                OFFSET 0.152213 0.000000 0.000000
                            }
                        }
                    }
                }
            }
            JOINT RightShoulder
            {
                OFFSET -0.040052 0.235234 -0.000041
                CHANNELS 3 Zrotation Xrotation Yrotation
                JOINT RightArm
                {
                    OFFSET -0.117964 0.000000 0.000000
                    CHANNELS 3 Zrotation Xrotation Yrotation
                    JOINT RightForeArm
                    {
                        OFFSET -0.291248 0.000000 0.000000
                        CHANNELS 3 Zrotation Xrotation Yrotation
                        JOINT RightHand
                        {
                            OFFSET -0.245673 0.000000 0.000000
                            CHANNELS 3 Zrotation Xrotation Yrotation
                            End Site
                            {
                                OFFSET -0.152213 0.000000 0.000000
                            }
                        }
                    }
                }
            }
        }
    }
    JOINT LeftUpLeg
    {
        OFFSET 0.101475 0.000000 0.000000
        CHANNELS 3 Zrotation Xrotation Yrotation
        JOINT LeftLeg
        {
            OFFSET -0.000000 -0.446535 0.000000
            CHANNELS 3 Zrotation Xrotation Yrotation
            JOINT LeftFoot
            {
                OFFSET -0.000000 -0.400037 0.000000
                CHANNELS 3 Zrotation Xrotation Yrotation
                JOINT LeftToeBase
                {
                    OFFSET -0.000000 -0.065959 0.152213
                    CHANNELS 3 Zrotation Xrotation Yrotation
                    End Site
                    {
                        OFFSET -0.000000 0.000000 0.040590
                    }
                }
            }
        }
    }
    JOINT RightUpLeg
    {
        OFFSET -0.101475 0.000000 0.000000
        CHANNELS 3 Zrotation Xrotation Yrotation
        JOINT RightLeg
        {
            OFFSET -0.000000 -0.446535 0.000000
            CHANNELS 3 Zrotation Xrotation Yrotation
            JOINT RightFoot
            {
                OFFSET -0.000000 -0.400037 0.000000
                CHANNELS 3 Zrotation Xrotation Yrotation
                JOINT RightToeBase
                {
                    OFFSET -0.000000 -0.065959 0.152213
                    CHANNELS 3 Zrotation Xrotation Yrotation
                    End Site
                    {
                        OFFSET -0.000000 0.000000 0.040590
                    }
                }
            }
        }
    }
}
MOTION
Frames:    9
Frame Time:    0.008333
-0.559277    0.945085    0.230940    0.938245    -2.337888    -7.478002    3.907629    1.149106    3.914490    -3.737879    -0.300827    1.307199    1.534423    4.362910    1.228971    2.237090    2.085143    1.204982    16.669207    -6.778980    3.279284    -20.894999    -0.918751    -1.426106    -2.072744    8.513124    2.763332    17.015055    7.802457    -5.130247    -15.247202    -1.996487    8.225666    22.122667    1.597536    -5.174195    -0.428637    2.550144    -0.315614    7.193942    2.235482    -4.988140    1.208514    8.973688    4.624975    -0.325278    1.200379    8.092116    -3.206690    -7.121643    4.804839    0.006346    2.404823    -0.059481    -5.709528    0.429966    6.606431    2.176374    13.118059    12.474407    1.306650    -11.623181    -21.111502    -0.025513    -1.051036    -0.733551    
-0.559286    0.945080    0.230975    0.943372    -2.340358    -7.493492    3.917547    1.152088    3.915926    -3.749530    -0.308713    1.307415    1.546558    4.385621    1.222493    2.236872    2.084792    1.200686    16.660425    -6.790154    3.274166    -20.906647    -1.046648    -1.404021    -2.089245    8.560472    2.742024    17.059319    7.843867    -5.157261    -15.247299    -1.982602    8.206599    22.139008    1.608448    -5.172125    -0.394043    2.529089    -0.325577    6.928184    2.228818    -4.943140    1.201885    8.979262    4.635503    -0.328593    1.200989    8.109082    -3.206442    -7.122885    4.792168    0.006532    2.402040    -0.061234    -5.713618    0.428859    6.621311    2.174880    13.123577    12.480659    1.299768    -11.631295    -21.117441    -0.025544    -1.057797    -0.733218    
-0.559292    0.945070    0.231026    0.949318    -2.341406    -7.507347    3.925902    1.148984    3.917887    -3.761650    -0.312716    1.307922    1.557613    4.408574    1.202251    2.239742    2.085456    1.181600    16.650576    -6.797618    3.268966    -20.915060    -1.167849    -1.392384    -2.108135    8.608914    2.726929    17.099005    7.884915    -5.196478    -15.246198    -1.977805    8.187873    22.127695    1.543978    -5.202873    -0.340246    2.557841    -0.262609    6.883711    2.256583    -4.997411    1.193353    8.986046    4.642192    -0.327041    1.198634    8.110123    -3.207917    -7.124926    4.796172    0.006268    2.400905    -0.058763    -5.718869    0.430828    6.630395    2.171897    13.122383    12.483017    1.294945    -11.636797    -21.115490    -0.025434    -1.046674    -0.732089    
-0.559304    0.945058    0.231079    0.953938    -2.342511    -7.515481    3.935798    1.146096    3.916117    -3.773382    -0.315913    1.307172    1.560154    4.425199    1.175834    2.252467    2.084562    1.153084    16.637066    -6.782798    3.280118    -20.914415    -1.246024    -1.423458    -2.126091    8.633974    2.751366    16.978691    7.900038    -5.307095    -15.251840    -1.981994    8.170902    22.145597    1.547833    -5.212346    -0.337773    2.586256    -0.261668    6.984342    2.279422    -5.016469    1.188865    8.992807    4.647876    -0.329771    1.194034    8.111445    -3.203486    -7.125800    4.796064    0.005435    2.407660    -0.050927    -5.722670    0.436289    6.636633    2.169256    13.117735    12.487928    1.290620    -11.642477    -21.117537    -0.025552    -1.046498    -0.735511    
-0.559314    0.945043    0.231139    0.959597    -2.342707    -7.520210    3.945485    1.140987    3.915847    -3.783956    -0.320161    1.306887    1.551964    4.447124    1.139279    2.272665    2.074799    1.111403    16.624413    -6.779433    3.284681    -20.918390    -1.265701    -1.455199    -2.150249    8.621384    2.767497    16.973358    7.901920    -5.216870    -15.253820    -1.982368    8.147947    22.152664    1.541758    -5.216661    -0.339870    2.605840    -0.270511    7.163548    2.279589    -5.200942    1.182353    8.998203    4.644855    -0.328888    1.191644    8.111896    -3.209792    -7.128249    4.802094    0.005542    2.411951    -0.051907    -5.728662    0.443521    6.641404    2.168706    13.109472    12.487090    1.286233    -11.647631    -21.116201    -0.025545    -1.040840    -0.736374    
-0.559247    0.944978    0.231124    0.988264    -2.317046    -7.537982    3.945680    1.118877    3.930003    -3.808932    -0.335745    1.310773    1.542831    4.468174    1.098140    2.303808    2.066162    1.063204    16.620699    -6.790426    3.285387    -20.934494    -1.217399    -1.482221    -2.148024    8.564749    2.783997    16.895561    7.839990    -5.278150    -15.252155    -1.979568    8.134724    22.171988    1.558956    -5.225965    -0.327808    2.576271    -0.309664    7.074931    2.256144    -5.164990    1.143501    8.970291    4.642661    -0.320330    1.188797    8.144866    -3.207886    -7.105652    4.842605    0.012668    2.384856    -0.118952    -5.763615    0.392259    6.643652    2.180540    13.115190    12.510689    1.285630    -11.639120    -21.127645    -0.025668    -1.049937    -0.738219    
-0.559268    0.944961    0.231199    0.989554    -2.316833    -7.538159    3.959869    1.114620    3.933167    -3.819517    -0.344789    1.311505    1.529064    4.485704    1.051336    2.334296    2.064164    1.008309    16.621326    -6.805708    3.270677    -20.968761    -1.141503    -1.488740    -2.133522    8.505225    2.784917    16.805994    7.789789    -5.240062    -15.259880    -1.979605    8.119016    22.174200    1.510065    -5.264863    -0.307194    2.606431    -0.274101    7.106813    2.286854    -5.135471    1.142991    8.976928    4.635024    -0.320403    1.184689    8.142520    -3.213063    -7.108592    4.854199    0.013362    2.383782    -0.125479    -5.763595    0.404821    6.647448    2.178075    13.101504    12.518247    1.280474    -11.646019    -21.139071    -0.025504    -1.041502    -0.735070    
-0.559290    0.944942    0.231288    0.990860    -2.319029    -7.538513    3.975775    1.112327    3.938110    -3.837834    -0.356367    1.312716    1.521889    4.508976    0.997683    2.371050    2.056230    0.946660    16.626570    -6.810089    3.248573    -21.016361    -1.075772    -1.489554    -2.103042    8.448682    2.766465    16.786255    7.736435    -5.216583    -15.255629    -1.955597    8.103190    22.180019    1.479484    -5.276377    -0.289133    2.683865    -0.313410    7.179722    2.366991    -5.040062    1.141642    8.988096    4.627187    -0.319595    1.177284    8.164611    -3.214869    -7.105748    4.838832    0.012626    2.382721    -0.118574    -5.764511    0.422357    6.656989    2.178201    13.083228    12.515966    1.273112    -11.646309    -21.145641    -0.025540    -1.037783    -0.736783    
-0.559322    0.944929    0.231384    0.992843    -2.320571    -7.536656    3.985487    1.107855    3.941008    -3.849203    -0.367307    1.313220    1.512939    4.531126    0.944145    2.409469    2.040399    0.884768    16.629082    -6.804539    3.226867    -21.060076    -1.077769    -1.488286    -2.083662    8.420247    2.738253    16.775394    7.709436    -5.203165    -15.252096    -1.958757    8.094335    22.180527    1.417749    -5.306780    -0.281452    2.714451    -0.311898    7.219069    2.396051    -5.037288    1.140072    8.999319    4.615841    -0.317997    1.169226    8.173734    -3.216907    -7.106515    4.835850    0.012195    2.384158    -0.114515    -5.764195    0.440486    6.660486    2.173535    13.065187    12.524050    1.270406    -11.650708    -21.155491    -0.025669    -1.039313    -0.740225    
